<svg version="1.1" viewBox="0.0 0.0 128.0 128.0" fill="none" stroke="none" stroke-linecap="square" stroke-miterlimit="10" xmlns:xlink="http://www.w3.org/1999/xlink" xmlns="http://www.w3.org/2000/svg"><clipPath id="p.0"><path d="m0 0l128.0 0l0 128.0l-128.0 0l0 -128.0z" clip-rule="nonzero"/></clipPath><g clip-path="url(#p.0)"><path fill="#000000" fill-opacity="0.0" d="m0 0l128.0 0l0 128.0l-128.0 0z" fill-rule="evenodd"/><path fill="#f4cccc" d="m0 64.0l0 0c0 -35.346222 28.653776 -64.0 64.0 -64.0l0 0c16.973854 0 33.252502 6.742838 45.254837 18.745167c12.002327 12.002327 18.745163 28.28098 18.745163 45.254833l0 0c0 35.346222 -28.653778 64.0 -64.0 64.0l0 0c-35.346222 0 -64.0 -28.653778 -64.0 -64.0zm99.21884 18.96399c8.374657 -15.552925 5.5559998 -34.757694 -6.9345703 -47.24826c-12.49057 -12.490566 -31.695332 -15.309227 -47.248264 -6.934572zm-70.43768 -37.927982l0 0c-8.374655 15.552933 -5.555994 34.757694 6.934572 47.248264c12.490566 12.49057 31.695335 15.309227 47.24826 6.9345703z" fill-rule="evenodd"/><path stroke="#ea9999" stroke-width="1.0" stroke-linejoin="round" stroke-linecap="butt" d="m0 64.0l0 0c0 -35.346222 28.653776 -64.0 64.0 -64.0l0 0c16.973854 0 33.252502 6.742838 45.254837 18.745167c12.002327 12.002327 18.745163 28.28098 18.745163 45.254833l0 0c0 35.346222 -28.653778 64.0 -64.0 64.0l0 0c-35.346222 0 -64.0 -28.653778 -64.0 -64.0zm99.21884 18.96399c8.374657 -15.552925 5.5559998 -34.757694 -6.9345703 -47.24826c-12.49057 -12.490566 -31.695332 -15.309227 -47.248264 -6.934572zm-70.43768 -37.927982l0 0c-8.374655 15.552933 -5.555994 34.757694 6.934572 47.248264c12.490566 12.49057 31.695335 15.309227 47.24826 6.9345703z" fill-rule="evenodd"/><path fill="#000000" fill-opacity="0.0" d="m3.574803 56.94488l120.85039 0l0 14.110233l-120.85039 0z" fill-rule="evenodd"/><path fill="#000000" d="m45.984375 37.120003l0 -22.906254l3.109375 0l12.03125 17.984379l0 -17.984379l2.90625 0l0 22.906254l-3.109375 0l-12.03125 -18.000004l0 18.000004l-2.90625 0zm21.734383 -8.296877q0 -4.609377 2.5625 -6.828127q2.140625 -1.84375 5.21875 -1.84375q3.421875 0 5.59375 2.25q2.171875 2.234375 2.171875 6.187502q0 3.203125 -0.96875 5.046877q-0.953125 1.828125 -2.796875 2.84375q-1.828125 1.015625 -4.0 1.015625q-3.484375 0 -5.640625 -2.234375q-2.140625 -2.234375 -2.140625 -6.437502zm2.890625 0q0 3.187502 1.390625 4.781252q1.390625 1.578125 3.5 1.578125q2.09375 0 3.484375 -1.59375q1.390625 -1.5937519 1.390625 -4.859377q0 -3.078125 -1.40625 -4.656252q-1.390625 -1.59375 -3.46875 -1.59375q-2.109375 0 -3.5 1.578125q-1.390625 1.5781269 -1.390625 4.765627z" fill-rule="nonzero"/><path fill="#000000" d="m22.515625 75.52l0 -22.906246l3.03125 0l0 22.906246l-3.03125 0zm8.015625 0l0 -16.593746l2.515625 0l0 2.328125q0.78125 -1.21875 2.078125 -1.953125q1.296875 -0.75 2.953125 -0.75q1.84375 0 3.015625 0.765625q1.1875 0.765625 1.671875 2.140625q1.96875 -2.90625 5.125 -2.90625q2.46875 0 3.796875 1.375q1.328125 1.359375 1.328125 4.203121l0 11.390625l-2.796875 0l0 -10.453125q0 -1.6874962 -0.28125 -2.4218712q-0.265625 -0.75 -0.984375 -1.203125q-0.71875 -0.453125 -1.6875 -0.453125q-1.75 0 -2.90625 1.171875q-1.15625 1.15625 -1.15625 3.7187462l0 9.640625l-2.8125 0l0 -10.78125q0 -1.8749962 -0.6875 -2.8124962q-0.6875 -0.9375 -2.25 -0.9375q-1.1875 0 -2.203125 0.625q-1.0 0.625 -1.453125 1.828125q-0.453125 1.2031212 -0.453125 3.4687462l0 8.609375l-2.8125 0zm37.484383 -2.046875q-1.5625076 1.328125 -3.0156326 1.875q-1.4375 0.546875 -3.09375 0.546875q-2.734375 0 -4.203125 -1.328125q-1.46875 -1.34375 -1.46875 -3.421875q0 -1.21875 0.546875 -2.21875q0.5625 -1.015625 1.453125 -1.625q0.90625 -0.609375 2.03125 -0.921875q0.828125 -0.21875 2.5 -0.421875q3.40625 -0.40625 5.0156326 -0.96875q0.015625 -0.578125 0.015625 -0.734375q0 -1.7187462 -0.7968826 -2.4218712q-1.078125 -0.953125 -3.203125 -0.953125q-1.984375 0 -2.9375 0.703125q-0.9375 0.6875 -1.390625 2.4531212l-2.75 -0.3749962q0.375 -1.765625 1.234375 -2.84375q0.859375 -1.09375 2.484375 -1.671875q1.625 -0.59375 3.765625 -0.59375q2.125 0 3.4531326 0.5q1.328125 0.5 1.953125 1.265625q0.625 0.75 0.875 1.90625q0.140625 0.71875 0.140625 2.5937462l0 3.75q0 3.921875 0.171875 4.96875q0.1875 1.03125 0.71875 1.984375l-2.9375 0q-0.4375 -0.875 -0.5625 -2.046875zm-0.234375 -6.28125q-1.5312576 0.625 -4.5937576 1.0625q-1.734375 0.25 -2.453125 0.5625q-0.71875 0.3125 -1.109375 0.921875q-0.390625 0.59375 -0.390625 1.328125q0 1.125 0.84375 1.875q0.859375 0.75 2.5 0.75q1.625 0 2.890625 -0.703125q1.265625 -0.71875 1.859375 -1.953125q0.45313263 -0.953125 0.45313263 -2.8125l0 -1.03125zm6.6875 9.703125l2.734375 0.40625q0.171875 1.265625 0.953125 1.84375q1.046875 0.78125 2.859375 0.78125q1.953125 0 3.015625 -0.78125q1.0625 -0.78125 1.4375 -2.1875q0.21875 -0.859375 0.203125 -3.609375q-1.84375 2.171875 -4.59375 2.171875q-3.421875 0 -5.296875 -2.46875q-1.875 -2.46875 -1.875 -5.921875q0 -2.375 0.859375 -4.374996q0.859375 -2.015625 2.484375 -3.109375q1.640625 -1.09375 3.84375 -1.09375q2.9375 0 4.84375 2.375l0 -2.0l2.59375 0l0 14.343746q0 3.875 -0.796875 5.484375q-0.78125 1.625 -2.5 2.5625q-1.703125 0.9375 -4.203125 0.9375q-2.96875 0 -4.796875 -1.34375q-1.828125 -1.328125 -1.765625 -4.015625zm2.328125 -9.96875q0 3.265625 1.296875 4.765625q1.296875 1.5 3.25 1.5q1.9375 0 3.25 -1.484375q1.3125 -1.5 1.3125 -4.6875q0 -3.0468712 -1.359375 -4.593746q-1.34375 -1.546875 -3.25 -1.546875q-1.875 0 -3.1875 1.53125q-1.3125 1.515625 -1.3125 4.515621zm27.34375 3.25l2.90625 0.359375q-0.6875 2.546875 -2.546875 3.953125q-1.859375 1.40625 -4.75 1.40625q-3.640625 0 -5.78125 -2.234375q-2.125 -2.25 -2.125 -6.296875q0 -4.187496 2.15625 -6.499996q2.15625 -2.3125 5.59375 -2.3125q3.328125 0 5.4375 2.265625q2.109375 2.265625 2.109375 6.374996q0 0.25 -0.015625 0.75l-12.375 0q0.15625 2.734375 1.546875 4.1875q1.390625 1.453125 3.46875 1.453125q1.546875 0 2.640625 -0.8125q1.09375 -0.8125 1.734375 -2.59375zm-9.234375 -4.546875l9.265625 0q-0.1875 -2.0937462 -1.0625 -3.1406212q-1.34375 -1.625 -3.484375 -1.625q-1.9375 0 -3.265625 1.296875q-1.3125 1.296875 -1.453125 3.4687462z" fill-rule="nonzero"/><path fill="#000000" d="m16.8125 113.92l0 -22.90625l15.453125 0l0 2.703125l-12.421875 0l0 7.09375l10.75 0l0 2.703125l-10.75 0l0 10.40625l-3.03125 0zm17.984375 -8.296875q0 -4.609375 2.5625 -6.828125q2.140625 -1.84375 5.21875 -1.84375q3.421875 0 5.59375 2.25q2.171875 2.234375 2.171875 6.1875q0 3.203125 -0.96875 5.046875q-0.953125 1.828125 -2.796875 2.84375q-1.828125 1.015625 -4.0 1.015625q-3.484375 0 -5.640625 -2.234375q-2.140625 -2.234375 -2.140625 -6.4375zm2.890625 0q0 3.1875 1.390625 4.78125q1.390625 1.578125 3.5 1.578125q2.09375 0 3.484375 -1.59375q1.390625 -1.59375 1.390625 -4.859375q0 -3.078125 -1.40625 -4.65625q-1.390625 -1.59375 -3.46875 -1.59375q-2.109375 0 -3.5 1.578125q-1.390625 1.578125 -1.390625 4.765625zm26.828125 8.296875l0 -2.4375q-1.9375 2.8125 -5.265625 2.8125q-1.46875 0 -2.75 -0.5625q-1.265625 -0.5625 -1.890625 -1.40625q-0.609375 -0.859375 -0.859375 -2.09375q-0.171875 -0.828125 -0.171875 -2.625l0 -10.28125l2.8125 0l0 9.203125q0 2.203125 0.171875 2.96875q0.265625 1.109375 1.125 1.75q0.859375 0.625 2.125 0.625q1.265625 0 2.375 -0.640625q1.109375 -0.65625 1.5625 -1.765625q0.46875 -1.125 0.46875 -3.25l0 -8.890625l2.8125 0l0 16.59375l-2.515625 0zm6.9218826 0l0 -16.59375l2.53125 0l0 2.359375q1.828125 -2.734375 5.28125 -2.734375q1.5 0 2.75 0.546875q1.265625 0.53125 1.890625 1.40625q0.625 0.875 0.875 2.078125q0.15625 0.78125 0.15625 2.734375l0 10.203125l-2.8125 0l0 -10.09375q0 -1.71875 -0.328125 -2.5625q-0.328125 -0.859375 -1.171875 -1.359375q-0.828125 -0.515625 -1.953125 -0.515625q-1.796875 0 -3.109375 1.140625q-1.296875 1.140625 -1.296875 4.328125l0 9.0625l-2.8125 0zm28.5625 0l0 -2.09375q-1.578125 2.46875 -4.640625 2.46875q-1.984375 0 -3.65625 -1.09375q-1.65625 -1.09375 -2.578125 -3.046875q-0.90625 -1.96875 -0.90625 -4.515625q0 -2.484375 0.828125 -4.5q0.828125 -2.03125 2.484375 -3.109375q1.65625 -1.078125 3.703125 -1.078125q1.5 0 2.671875 0.640625q1.171875 0.625 1.90625 1.640625l0 -8.21875l2.796875 0l0 22.90625l-2.609375 0zm-8.890625 -8.28125q0 3.1875 1.34375 4.765625q1.34375 1.578125 3.171875 1.578125q1.84375 0 3.125 -1.5q1.296875 -1.515625 1.296875 -4.609375q0 -3.40625 -1.3125 -5.0q-1.3125 -1.59375 -3.234375 -1.59375q-1.875 0 -3.140625 1.53125q-1.25 1.53125 -1.25 4.828125zm17.421875 2.59375l-0.859375 -12.140625l0 -5.078125l3.484375 0l0 5.078125l-0.8125 12.140625l-1.8125 0zm-0.734375 5.6875l0 -3.203125l3.234375 0l0 3.203125l-3.234375 0z" fill-rule="nonzero"/></g></svg>